<?xml version="1.0" encoding="utf-8"?>
<!-- Generator: Adobe Illustrator 26.1.0, SVG Export Plug-In . SVG Version: 6.00 Build 0)  -->
<svg version="1.1" id="Layer_1" xmlns="http://www.w3.org/2000/svg" xmlns:xlink="http://www.w3.org/1999/xlink" x="0px" y="0px"
	 viewBox="0 0 1000 1000" style="enable-background:new 0 0 1000 1000;" xml:space="preserve">
<style type="text/css">
	.st0{fill:#1AC2E7;}
	.st1{fill:#FFFFFF;}
</style>
<path class="st0" d="M500,1000L500,1000c276.1,0,500-223.9,500-500v0C1000,223.9,776.1,0,500,0h0C223.9,0,0,223.9,0,500v0
	C0,776.1,223.9,1000,500,1000z"/>
<g>
	<g>
		<path class="st1" d="M499.9,805c-19.7,0-37.3-10.9-46.1-28.4L420.6,710c-66.3-0.5-110-3.3-143.8-26c-17-11.3-31.3-25.7-42.7-42.7
			c-26.1-38.9-26.1-89.1-26.1-188.8c0-99.8,0-149.9,26.1-188.8c11.3-17,25.7-31.3,42.7-42.7C315.7,195,365.9,195,465.6,195h68.7
			c99.8,0,149.9,0,188.8,26.1c17,11.3,31.3,25.7,42.7,42.7l0,0c26.1,38.9,26.1,89.1,26.1,188.8c0,99.8,0,149.9-26.1,188.8
			c-11.3,17-25.7,31.3-42.7,42.7c-33.8,22.6-77.5,25.4-143.9,26L546,776.6C537.2,794.1,519.6,805,499.9,805z M447,686l37.6,75.1
			c3,6,8.8,9.5,15.4,9.5s12.4-3.5,15.4-9.5l37.7-75.5c2.7-5.9,8.7-10,15.6-10c74.7-0.3,110.1-3.2,135.6-20.2
			c13.2-8.9,24.3-20,33.2-33.2c20.2-30.2,20.2-76.9,20.2-169.7s0-139.5-20.3-169.8c-8.9-13.2-20-24.3-33.2-33.2
			c-30.3-20.3-76.9-20.3-169.8-20.3h-68.7c-92.8,0-139.5,0-169.8,20.3c-13.2,8.9-24.3,20-33.2,33.2c-20.2,30.3-20.2,76.9-20.2,169.8
			c0,92.8,0,139.5,20.3,169.8c8.9,13.2,20,24.3,33.2,33.2c25.4,17,60.8,19.9,135.6,20.2C438.3,675.7,444.4,679.9,447,686z"/>
	</g>
	<g>
		<path class="st1" d="M603,401h-206c-9.5,0-17.2-7.7-17.2-17.2s7.7-17.2,17.2-17.2h206c9.5,0,17.2,7.7,17.2,17.2S612.4,401,603,401
			z"/>
	</g>
	<g>
		<path class="st1" d="M499.9,538.4h-103c-9.5,0-17.2-7.7-17.2-17.2c0-9.5,7.7-17.2,17.2-17.2h103c9.5,0,17.2,7.7,17.2,17.2
			C517.2,530.6,509.4,538.4,499.9,538.4z"/>
	</g>
</g>
</svg>
