<?xml version="1.0" encoding="utf-8"?>
<!-- Generator: Adobe Illustrator 26.1.0, SVG Export Plug-In . SVG Version: 6.00 Build 0)  -->
<svg version="1.1" id="Layer_1" xmlns="http://www.w3.org/2000/svg" xmlns:xlink="http://www.w3.org/1999/xlink" x="0px" y="0px"
	 viewBox="0 0 1000 1000" style="enable-background:new 0 0 1000 1000;" xml:space="preserve">
<style type="text/css">
	.st0{fill:#1AC2E7;}
	.st1{fill:#FFFFFF;}
</style>
<path class="st0" d="M500,1000L500,1000c276.1,0,500-223.9,500-500v0C1000,223.9,776.1,0,500,0h0C223.9,0,0,223.9,0,500v0
	C0,776.1,223.9,1000,500,1000z"/>
<g>
	<path class="st1" d="M626.5,189h-253c-32,0-57.9,26-58,58v506c0.1,32,26,57.9,58,58h253c32-0.1,57.9-26,58-58V247
		C684.4,215,658.5,189.1,626.5,189L626.5,189z M652.8,753c0,14.5-11.8,26.3-26.3,26.3h-253c-14.5,0-26.3-11.8-26.3-26.3V247
		c0-14.5,11.8-26.3,26.3-26.3h253c14.5,0,26.3,11.8,26.3,26.3l0,0V753z M542.2,705.6h-84.3c-8.7,0-15.9,7.1-15.9,15.9
		c0,8.8,7.1,15.9,15.9,15.9l0,0h84.3c8.7,0,15.9-7.1,15.9-15.9C558,712.7,550.8,705.6,542.2,705.6L542.2,705.6z"/>
</g>
</svg>
