<?xml version="1.0" encoding="utf-8"?>
<!-- Generator: Adobe Illustrator 26.1.0, SVG Export Plug-In . SVG Version: 6.00 Build 0)  -->
<svg version="1.1" id="Layer_1" xmlns="http://www.w3.org/2000/svg" xmlns:xlink="http://www.w3.org/1999/xlink" x="0px" y="0px"
	 viewBox="0 0 1000 1000" style="enable-background:new 0 0 1000 1000;" xml:space="preserve">
<style type="text/css">
	.st0{fill:#1AC2E7;}
	.st1{fill:#FFFFFF;}
</style>
<path class="st0" d="M500,1000L500,1000c276.1,0,500-223.9,500-500v0C1000,223.9,776.1,0,500,0h0C223.9,0,0,223.9,0,500v0
	C0,776.1,223.9,1000,500,1000z"/>
<g>
	<g>
		<path class="st1" d="M500,814.7c-34.2,0-52.2-29-82-77.1c-32.5-52.4-66.4-108.3-93.6-162c-33.6-66.1-49.8-115.3-49.8-150.2
			C274.6,301.1,375.7,200,500,200s225.4,101.1,225.4,225.4c0,71.2-68.8,192-143.3,312.1C552.2,785.7,534.2,814.7,500,814.7z
			 M500,240.9c-101.7,0-184.4,82.7-184.4,184.4c0,69.3,92.7,218.7,137.2,290.6c24.2,39,36.3,57.8,47.2,57.8s23-18.7,47.2-57.8
			c44.5-71.8,137.2-221.3,137.2-290.6C684.4,323.7,601.7,240.9,500,240.9z"/>
	</g>
	<g>
		<path class="st1" d="M500,548.3c-67.7,0-122.9-55.2-122.9-122.9S432.3,302.4,500,302.4s122.9,55.2,122.9,122.9
			S567.7,548.3,500,548.3z M500,343.5c-45.2,0-82,36.8-82,82s36.8,81.9,82,81.9s82-36.8,82-82S545.2,343.5,500,343.5z"/>
	</g>
</g>
</svg>
